<svg width="409" height="522" viewBox="0 0 409 522" fill="none" xmlns="http://www.w3.org/2000/svg">
<g style="mix-blend-mode:lighten">
<path d="M312.593 494.452C306.75 509.789 264.198 521.475 204.5 521.475C144.802 521.475 100.059 509.059 96.4071 494.452C96.4071 479.527 144.802 475.462 204.5 475.462C264.198 475.462 312.593 479.527 312.593 494.452Z" fill="white" fill-opacity="0.2"/>
</g>
<path d="M211.073 450.63C211.073 450.63 157.757 421.416 157.757 383.437C157.757 345.459 211.073 313.323 211.073 246.861" stroke="white" stroke-width="4" stroke-linecap="round"/>
<g opacity="0.5">
<path fill-rule="evenodd" clip-rule="evenodd" d="M391.401 283.887C388.648 307.919 306.023 327.2 204.5 327.2C102.977 327.2 20.3535 307.92 17.5994 283.887C17.5523 286.012 17.5286 288.144 17.5286 290.282C17.5286 372.689 52.7455 444.975 105.672 485.601V483.125C105.674 484.149 105.918 485.159 106.392 486.151C111.613 490.118 117.005 493.778 122.551 497.111C140.311 503.77 170.387 508.148 204.5 508.148C238.613 508.148 268.69 503.77 286.45 497.111C291.995 493.778 297.387 490.118 302.608 486.151C303.083 485.155 303.328 484.142 303.328 483.114V485.601C356.254 444.975 391.471 372.689 391.471 290.282C391.471 288.143 391.448 286.011 391.401 283.887ZM303.328 483.114L303.328 482.437H303.292C303.316 482.662 303.328 482.888 303.328 483.114ZM105.672 483.103C105.673 482.88 105.684 482.658 105.708 482.437H105.672V483.103Z" fill="#BD00FF"/>
<path fill-rule="evenodd" clip-rule="evenodd" d="M391.401 283.887C388.648 307.919 306.023 327.2 204.5 327.2C102.977 327.2 20.3535 307.92 17.5994 283.887C17.5523 286.012 17.5286 288.144 17.5286 290.282C17.5286 372.689 52.7455 444.975 105.672 485.601V483.125C105.674 484.149 105.918 485.159 106.392 486.151C111.613 490.118 117.005 493.778 122.551 497.111C140.311 503.77 170.387 508.148 204.5 508.148C238.613 508.148 268.69 503.77 286.45 497.111C291.995 493.778 297.387 490.118 302.608 486.151C303.083 485.155 303.328 484.142 303.328 483.114V485.601C356.254 444.975 391.471 372.689 391.471 290.282C391.471 288.143 391.448 286.011 391.401 283.887ZM303.328 483.114L303.328 482.437H303.292C303.316 482.662 303.328 482.888 303.328 483.114ZM105.672 483.103C105.673 482.88 105.684 482.658 105.708 482.437H105.672V483.103Z" fill="url(#paint0_linear_7_37)" fill-opacity="0.2"/>
<path fill-rule="evenodd" clip-rule="evenodd" d="M391.401 283.887C388.648 307.919 306.023 327.2 204.5 327.2C102.977 327.2 20.3535 307.92 17.5994 283.887C17.5523 286.012 17.5286 288.144 17.5286 290.282C17.5286 372.689 52.7455 444.975 105.672 485.601V483.125C105.674 484.149 105.918 485.159 106.392 486.151C111.613 490.118 117.005 493.778 122.551 497.111C140.311 503.77 170.387 508.148 204.5 508.148C238.613 508.148 268.69 503.77 286.45 497.111C291.995 493.778 297.387 490.118 302.608 486.151C303.083 485.155 303.328 484.142 303.328 483.114V485.601C356.254 444.975 391.471 372.689 391.471 290.282C391.471 288.143 391.448 286.011 391.401 283.887ZM303.328 483.114L303.328 482.437H303.292C303.316 482.662 303.328 482.888 303.328 483.114ZM105.672 483.103C105.673 482.88 105.684 482.658 105.708 482.437H105.672V483.103Z" fill="url(#paint1_linear_7_37)" fill-opacity="0.2"/>
</g>
<g opacity="0.8" filter="url(#filter0_i_7_37)">
<ellipse cx="204.5" cy="282.648" rx="186.971" ry="44.5518" fill="#BD00FF" fill-opacity="0.8"/>
</g>
<g opacity="0.8" filter="url(#filter1_i_7_37)">
<ellipse cx="206.691" cy="279.727" rx="22.6411" ry="6.57321" fill="#BD00FF" fill-opacity="0.8"/>
</g>
<g style="mix-blend-mode:lighten" opacity="0.5">
<ellipse cx="204.5" cy="138.768" rx="162.139" ry="43.8214" fill="white" fill-opacity="0.5"/>
<ellipse cx="204.5" cy="138.768" rx="162.139" ry="43.8214" stroke="white" stroke-width="4"/>
</g>
<path fill-rule="evenodd" clip-rule="evenodd" d="M213.073 246.861C213.073 245.756 212.178 244.861 211.073 244.861C209.969 244.861 209.073 245.756 209.073 246.861C209.073 257.994 207.553 268.151 205.023 277.536H209.16C211.606 268.142 213.073 257.975 213.073 246.861Z" fill="white"/>
<ellipse cx="209.613" cy="148.993" rx="65.0018" ry="148.993" fill="url(#paint2_radial_7_37)"/>
<g style="mix-blend-mode:lighten" opacity="0.3">
<path fill-rule="evenodd" clip-rule="evenodd" d="M366.639 138.768C366.639 162.97 294.047 182.589 204.5 182.589C114.953 182.589 42.3607 162.97 42.3607 138.768C42.3607 137.468 42.5511 135.889 42.9252 134.065C16.0204 176.108 0 228.932 0 286.3C0 375.254 38.5185 453.283 96.4071 497.137V494.452C96.4071 495.562 96.6747 496.656 97.1946 497.73C102.905 502.013 108.801 505.963 114.866 509.56C134.291 516.749 167.188 521.475 204.5 521.475C241.812 521.475 274.709 516.749 294.134 509.56C300.199 505.963 306.095 502.013 311.805 497.73C312.325 496.656 312.593 495.562 312.593 494.452V497.137C370.481 453.283 409 375.254 409 286.3C409 228.805 392.908 175.874 365.896 133.785C366.387 135.728 366.639 137.402 366.639 138.768ZM312.593 494.452C312.593 494.208 312.58 493.964 312.554 493.721H312.593V494.452ZM96.4071 494.452V493.721H96.4459C96.4201 493.964 96.4071 494.208 96.4071 494.452Z" fill="white" fill-opacity="0.6"/>
<path fill-rule="evenodd" clip-rule="evenodd" d="M366.639 138.768C366.639 162.97 294.047 182.589 204.5 182.589C114.953 182.589 42.3607 162.97 42.3607 138.768C42.3607 137.468 42.5511 135.889 42.9252 134.065C16.0204 176.108 0 228.932 0 286.3C0 375.254 38.5185 453.283 96.4071 497.137V494.452C96.4071 495.562 96.6747 496.656 97.1946 497.73C102.905 502.013 108.801 505.963 114.866 509.56C134.291 516.749 167.188 521.475 204.5 521.475C241.812 521.475 274.709 516.749 294.134 509.56C300.199 505.963 306.095 502.013 311.805 497.73C312.325 496.656 312.593 495.562 312.593 494.452V497.137C370.481 453.283 409 375.254 409 286.3C409 228.805 392.908 175.874 365.896 133.785C366.387 135.728 366.639 137.402 366.639 138.768ZM312.593 494.452C312.593 494.208 312.58 493.964 312.554 493.721H312.593V494.452ZM96.4071 494.452V493.721H96.4459C96.4201 493.964 96.4071 494.208 96.4071 494.452Z" fill="url(#paint3_linear_7_37)" fill-opacity="0.2"/>
<path fill-rule="evenodd" clip-rule="evenodd" d="M366.639 138.768C366.639 162.97 294.047 182.589 204.5 182.589C114.953 182.589 42.3607 162.97 42.3607 138.768C42.3607 137.468 42.5511 135.889 42.9252 134.065C16.0204 176.108 0 228.932 0 286.3C0 375.254 38.5185 453.283 96.4071 497.137V494.452C96.4071 495.562 96.6747 496.656 97.1946 497.73C102.905 502.013 108.801 505.963 114.866 509.56C134.291 516.749 167.188 521.475 204.5 521.475C241.812 521.475 274.709 516.749 294.134 509.56C300.199 505.963 306.095 502.013 311.805 497.73C312.325 496.656 312.593 495.562 312.593 494.452V497.137C370.481 453.283 409 375.254 409 286.3C409 228.805 392.908 175.874 365.896 133.785C366.387 135.728 366.639 137.402 366.639 138.768ZM312.593 494.452C312.593 494.208 312.58 493.964 312.554 493.721H312.593V494.452ZM96.4071 494.452V493.721H96.4459C96.4201 493.964 96.4071 494.208 96.4071 494.452Z" fill="url(#paint4_linear_7_37)" fill-opacity="0.2"/>
</g>
<defs>
<filter id="filter0_i_7_37" x="17.5286" y="238.096" width="373.943" height="89.1035" filterUnits="userSpaceOnUse" color-interpolation-filters="sRGB">
<feFlood flood-opacity="0" result="BackgroundImageFix"/>
<feBlend mode="normal" in="SourceGraphic" in2="BackgroundImageFix" result="shape"/>
<feColorMatrix in="SourceAlpha" type="matrix" values="0 0 0 0 0 0 0 0 0 0 0 0 0 0 0 0 0 0 127 0" result="hardAlpha"/>
<feOffset/>
<feGaussianBlur stdDeviation="5"/>
<feComposite in2="hardAlpha" operator="arithmetic" k2="-1" k3="1"/>
<feColorMatrix type="matrix" values="0 0 0 0 0.26825 0 0 0 0 0 0 0 0 0 0.3625 0 0 0 1 0"/>
<feBlend mode="normal" in2="shape" result="effect1_innerShadow_7_37"/>
</filter>
<filter id="filter1_i_7_37" x="184.05" y="273.154" width="45.2822" height="13.1465" filterUnits="userSpaceOnUse" color-interpolation-filters="sRGB">
<feFlood flood-opacity="0" result="BackgroundImageFix"/>
<feBlend mode="normal" in="SourceGraphic" in2="BackgroundImageFix" result="shape"/>
<feColorMatrix in="SourceAlpha" type="matrix" values="0 0 0 0 0 0 0 0 0 0 0 0 0 0 0 0 0 0 127 0" result="hardAlpha"/>
<feOffset/>
<feGaussianBlur stdDeviation="2"/>
<feComposite in2="hardAlpha" operator="arithmetic" k2="-1" k3="1"/>
<feColorMatrix type="matrix" values="0 0 0 0 0.26825 0 0 0 0 0 0 0 0 0 0.3625 0 0 0 1 0"/>
<feBlend mode="normal" in2="shape" result="effect1_innerShadow_7_37"/>
</filter>
<linearGradient id="paint0_linear_7_37" x1="391.471" y1="367.885" x2="17.5286" y2="367.885" gradientUnits="userSpaceOnUse">
<stop stop-color="#BD00FF"/>
<stop offset="0.242857" stop-color="#BD00FF" stop-opacity="0.8"/>
<stop offset="0.535714" stop-color="white" stop-opacity="0"/>
<stop offset="0.771429" stop-color="#BD00FF" stop-opacity="0.8"/>
<stop offset="1" stop-color="#BD00FF"/>
</linearGradient>
<linearGradient id="paint1_linear_7_37" x1="204.5" y1="396.074" x2="204.5" y2="508.148" gradientUnits="userSpaceOnUse">
<stop stop-color="#BD00FF"/>
<stop offset="0.53125" stop-color="#E8E8E8" stop-opacity="0"/>
<stop offset="1" stop-color="#BD00FF"/>
</linearGradient>
<radialGradient id="paint2_radial_7_37" cx="0" cy="0" r="1" gradientUnits="userSpaceOnUse" gradientTransform="translate(210.343 198.921) rotate(-90) scale(103.745 45.2614)">
<stop stop-color="#FFE600"/>
<stop offset="0.552083" stop-color="#FF0000" stop-opacity="0.29"/>
<stop offset="1" stop-color="#FF5C00" stop-opacity="0"/>
</radialGradient>
<linearGradient id="paint3_linear_7_37" x1="409" y1="278.996" x2="2.57524e-06" y2="278.996" gradientUnits="userSpaceOnUse">
<stop stop-color="white" stop-opacity="0.7"/>
<stop offset="0.242857" stop-color="white" stop-opacity="0.3"/>
<stop offset="0.535714" stop-color="white" stop-opacity="0"/>
<stop offset="0.771429" stop-color="white" stop-opacity="0.3"/>
<stop offset="1" stop-color="white" stop-opacity="0.7"/>
</linearGradient>
<linearGradient id="paint4_linear_7_37" x1="204.5" y1="182.589" x2="204.5" y2="521.475" gradientUnits="userSpaceOnUse">
<stop stop-color="#D9D9D9"/>
<stop offset="0.53125" stop-color="#E8E8E8" stop-opacity="0"/>
<stop offset="1" stop-color="#F5F5F5"/>
</linearGradient>
</defs>
</svg>
